<svg width="14" height="14" viewBox="0 0 14 14" fill="none" xmlns="http://www.w3.org/2000/svg">
<path d="M10.6 10.26C10.4267 9.72667 9.92667 9.33333 9.33333 9.33333H8.66667V7.33333C8.66667 7.15652 8.59643 6.98695 8.4714 6.86193C8.34638 6.7369 8.17681 6.66667 8 6.66667H4V5.33333H5.33333C5.51014 5.33333 5.67971 5.26309 5.80474 5.13807C5.92976 5.01305 6 4.84348 6 4.66667V3.33333H7.33333C7.68695 3.33333 8.02609 3.19286 8.27614 2.94281C8.52619 2.69276 8.66667 2.35362 8.66667 2V1.72667C10.62 2.51333 12 4.42667 12 6.66667C12 8.05333 11.4667 9.31333 10.6 10.26ZM6 11.9533C3.36667 11.6267 1.33333 9.38667 1.33333 6.66667C1.33333 6.25333 1.38667 5.85333 1.47333 5.47333L4.66667 8.66667V9.33333C4.66667 9.68695 4.80714 10.0261 5.05719 10.2761C5.30724 10.5262 5.64638 10.6667 6 10.6667M6.66667 0C5.79119 0 4.92428 0.172438 4.11544 0.50747C3.30661 0.842501 2.57168 1.33356 1.95262 1.95262C0.702379 3.20286 0 4.89856 0 6.66667C0 8.43478 0.702379 10.1305 1.95262 11.3807C2.57168 11.9998 3.30661 12.4908 4.11544 12.8259C4.92428 13.1609 5.79119 13.3333 6.66667 13.3333C8.43478 13.3333 10.1305 12.631 11.3807 11.3807C12.631 10.1305 13.3333 8.43478 13.3333 6.66667C13.3333 5.79119 13.1609 4.92428 12.8259 4.11544C12.4908 3.30661 11.9998 2.57168 11.3807 1.95262C10.7617 1.33356 10.0267 0.842501 9.21789 0.50747C8.40905 0.172438 7.54215 0 6.66667 0Z" fill="#929292"/>
</svg>
